<?xml version="1.0" encoding="UTF-8" standalone="no"?>
<svg
   xmlns:dc="http://purl.org/dc/elements/1.1/"
   xmlns:cc="http://creativecommons.org/ns#"
   xmlns:rdf="http://www.w3.org/1999/02/22-rdf-syntax-ns#"
   xmlns:svg="http://www.w3.org/2000/svg"
   xmlns="http://www.w3.org/2000/svg"
   viewBox="0 0 170.6664 170.66665"
   height="170.66666"
   width="170.6664"
   xml:space="preserve"
   id="svg2"
   version="1.1"><metadata
     id="metadata8"><rdf:RDF><cc:Work
         rdf:about=""><dc:format>image/svg+xml</dc:format><dc:type
           rdf:resource="http://purl.org/dc/dcmitype/StillImage" /></cc:Work></rdf:RDF></metadata><defs
     id="defs6"><clipPath
       id="clipPath18"
       clipPathUnits="userSpaceOnUse"><path
         id="path16"
         d="M 0,128 H 128 V 0 H 0 Z" /></clipPath></defs><g
     transform="matrix(1.3333333,0,0,-1.3333333,0,170.66666)"
     id="g10"><g
       id="g12"><g
         clip-path="url(#clipPath18)"
         id="g14"><g
           transform="translate(64.0002,85.7993)"
           id="g20"><path
             id="path22"
             style="fill:#ffffff;fill-opacity:1;fill-rule:nonzero;stroke:none"
             d="m 0,0 c -11.782,0 -21.333,-9.551 -21.333,-21.333 0,-11.782 9.551,-21.333 21.333,-21.333 11.782,0 21.333,9.551 21.333,21.333 C 21.333,-9.551 11.782,0 0,0" /></g><g
           transform="translate(97.7268,90.75)"
           id="g24"><path
             id="path26"
             style="fill:#ffffff;fill-opacity:1;fill-rule:nonzero;stroke:none"
             d="m 0,0 c -4.168,0 -7.547,3.379 -7.547,7.546 0,4.168 3.379,7.547 7.547,7.547 4.168,0 7.546,-3.379 7.546,-7.547 C 7.546,3.379 4.168,0 0,0 m -33.727,-58.216 c -17.635,0 -31.932,14.297 -31.932,31.932 0,17.636 14.297,31.933 31.932,31.933 17.636,0 31.933,-14.297 31.933,-31.933 0,-17.635 -14.297,-31.932 -31.933,-31.932 m 63.615,57.853 c -0.311,6.812 -1.393,11.464 -2.975,15.535 -1.636,4.209 -3.824,7.778 -7.382,11.336 -3.557,3.558 -7.127,5.746 -11.336,7.382 -4.071,1.582 -8.723,2.664 -15.535,2.975 -6.826,0.311 -9.006,0.385 -26.387,0.385 -17.38,0 -19.561,-0.074 -26.387,-0.385 -6.812,-0.311 -11.465,-1.393 -15.534,-2.975 -4.209,-1.635 -7.779,-3.824 -11.337,-7.382 -3.558,-3.558 -5.746,-7.127 -7.382,-11.336 -1.582,-4.071 -2.664,-8.723 -2.975,-15.535 -0.311,-6.826 -0.385,-9.006 -0.385,-26.387 0,-17.381 0.074,-19.561 0.385,-26.387 0.311,-6.812 1.393,-11.464 2.975,-15.535 1.636,-4.209 3.824,-7.778 7.382,-11.336 3.558,-3.558 7.128,-5.746 11.337,-7.382 4.07,-1.582 8.722,-2.664 15.534,-2.975 6.826,-0.311 9.007,-0.385 26.387,-0.385 17.381,0 19.561,0.074 26.387,0.385 6.812,0.311 11.464,1.393 15.535,2.975 4.209,1.636 7.779,3.824 11.336,7.382 3.558,3.558 5.746,7.127 7.382,11.336 1.582,4.071 2.664,8.723 2.975,15.535 0.311,6.826 0.385,9.006 0.385,26.387 0,17.381 -0.074,19.561 -0.385,26.387" /></g></g></g></g></svg>