<?xml version="1.0" encoding="UTF-8" standalone="no"?>
<svg
   xmlns:dc="http://purl.org/dc/elements/1.1/"
   xmlns:cc="http://creativecommons.org/ns#"
   xmlns:rdf="http://www.w3.org/1999/02/22-rdf-syntax-ns#"
   xmlns:svg="http://www.w3.org/2000/svg"
   xmlns="http://www.w3.org/2000/svg"
   viewBox="0 0 38.666664 31.999868"
   height="31.999868"
   width="38.666664"
   xml:space="preserve"
   id="svg2"
   version="1.1"><metadata
     id="metadata8"><rdf:RDF><cc:Work
         rdf:about=""><dc:format>image/svg+xml</dc:format><dc:type
           rdf:resource="http://purl.org/dc/dcmitype/StillImage" /></cc:Work></rdf:RDF></metadata><defs
     id="defs6"><clipPath
       id="clipPath18"
       clipPathUnits="userSpaceOnUse"><path
         id="path16"
         d="M 0,24 H 29 V 0 H 0 Z" /></clipPath></defs><g
     transform="matrix(1.3333333,0,0,-1.3333333,0,31.999999)"
     id="g10"><g
       id="g12"><g
         clip-path="url(#clipPath18)"
         id="g14"><g
           transform="translate(28.0159,20.815)"
           id="g20"><path
             id="path22"
             style="fill:#598dca;fill-opacity:1;fill-rule:nonzero;stroke:none"
             d="m 0,0 c -1.781,-0.636 -2.033,-0.551 -1.152,0.402 0.649,0.678 1.425,1.907 1.425,2.267 0,0.062 -0.314,-0.042 -0.671,-0.233 -0.377,-0.212 -1.215,-0.53 -1.844,-0.72 L -3.373,1.354 -4.4,2.055 C -4.966,2.436 -5.761,2.86 -6.181,2.987 -7.25,3.283 -8.885,3.241 -9.849,2.902 c -2.619,-0.953 -4.274,-3.411 -4.086,-6.101 l 0.063,-1.038 -1.048,0.127 c -3.813,0.487 -7.145,2.139 -9.974,4.915 l -1.383,1.377 -0.356,-1.017 c -0.754,-2.268 -0.272,-4.661 1.299,-6.271 0.838,-0.89 0.649,-1.017 -0.796,-0.487 -0.503,0.169 -0.943,0.296 -0.985,0.233 -0.146,-0.149 0.356,-2.077 0.754,-2.839 0.545,-1.06 1.655,-2.097 2.871,-2.712 l 1.027,-0.487 -1.215,-0.021 c -1.173,0 -1.215,-0.021 -1.089,-0.467 0.419,-1.377 2.074,-2.839 3.918,-3.475 l 1.299,-0.444 -1.131,-0.678 c -1.676,-0.976 -3.646,-1.526 -5.616,-1.567 -0.944,-0.021 -1.719,-0.106 -1.719,-0.17 0,-0.211 2.557,-1.397 4.044,-1.864 4.463,-1.377 9.765,-0.783 13.746,1.568 2.829,1.674 5.657,5 6.978,8.221 0.713,1.715 1.425,4.851 1.425,6.354 0,0.975 0.063,1.102 1.236,2.267 0.692,0.678 1.341,1.419 1.467,1.631 C 1.09,0.36 1.068,0.36 0,0" /></g></g></g></g></svg>