<?xml version="1.0" encoding="UTF-8" standalone="no"?>
<svg
   xmlns:dc="http://purl.org/dc/elements/1.1/"
   xmlns:cc="http://creativecommons.org/ns#"
   xmlns:rdf="http://www.w3.org/1999/02/22-rdf-syntax-ns#"
   xmlns:svg="http://www.w3.org/2000/svg"
   xmlns="http://www.w3.org/2000/svg"
   viewBox="0 0 388.42532 388.4252"
   height="388.4252"
   width="388.42532"
   xml:space="preserve"
   id="svg2"
   version="1.1"><metadata
     id="metadata8"><rdf:RDF><cc:Work
         rdf:about=""><dc:format>image/svg+xml</dc:format><dc:type
           rdf:resource="http://purl.org/dc/dcmitype/StillImage" /></cc:Work></rdf:RDF></metadata><defs
     id="defs6"><clipPath
       id="clipPath18"
       clipPathUnits="userSpaceOnUse"><path
         id="path16"
         d="M 0,291.319 H 291.319 V 0 H 0 Z" /></clipPath></defs><g
     transform="matrix(1.3333333,0,0,-1.3333333,0,388.42532)"
     id="g10"><g
       id="g12"><g
         clip-path="url(#clipPath18)"
         id="g14"><g
           transform="translate(182.166,191.0421)"
           id="g20"><path
             id="path22"
             style="fill:#ffffff;fill-opacity:1;fill-rule:nonzero;stroke:none"
             d="m 0,0 h -18.772 c -5.053,0 -8.603,-4.279 -8.603,-9.614 v -8.366 h 26.81 l -4.342,-27.156 h -22.477 v -72.793 h -27.439 v 72.793 H -73.03 v 27.156 h 18.207 v 13.847 h 0.055 c 0.483,15.786 5.963,30.816 32.701,31.763 v 0.1 L 0,27.73 Z m -36.507,100.277 c -80.449,0 -145.659,-65.219 -145.659,-145.66 0,-80.45 65.209,-145.659 145.659,-145.659 80.45,0 145.66,65.209 145.66,145.659 0,80.441 -65.21,145.66 -145.66,145.66" /></g></g></g></g></svg>