<?xml version="1.0" encoding="UTF-8" standalone="no"?>
<svg
   xmlns:dc="http://purl.org/dc/elements/1.1/"
   xmlns:cc="http://creativecommons.org/ns#"
   xmlns:rdf="http://www.w3.org/1999/02/22-rdf-syntax-ns#"
   xmlns:svg="http://www.w3.org/2000/svg"
   xmlns="http://www.w3.org/2000/svg"
   viewBox="0 0 116 116.00078"
   height="116.00079"
   width="116"
   xml:space="preserve"
   id="svg2"
   version="1.1"><metadata
     id="metadata8"><rdf:RDF><cc:Work
         rdf:about=""><dc:format>image/svg+xml</dc:format><dc:type
           rdf:resource="http://purl.org/dc/dcmitype/StillImage" /></cc:Work></rdf:RDF></metadata><defs
     id="defs6"><clipPath
       id="clipPath18"
       clipPathUnits="userSpaceOnUse"><path
         id="path16"
         d="M 0,87.001 H 87 V 0 H 0 Z" /></clipPath></defs><g
     transform="matrix(1.3333333,0,0,-1.3333333,0,116.0008)"
     id="g10"><g
       id="g12"><g
         clip-path="url(#clipPath18)"
         id="g14"><g
           transform="translate(46,60.5006)"
           id="g20"><path
             id="path22"
             style="fill:#000000;fill-opacity:1;fill-rule:nonzero;stroke:none"
             d="M 0,0 C 0,1.379 -1.121,2.5 -2.5,2.5 -3.879,2.5 -5,1.379 -5,0 c 0,-1.379 1.121,-2.5 2.5,-2.5 1.379,0 2.5,1.121 2.5,2.5" /></g><g
           transform="translate(43.5,87.0006)"
           id="g24"><path
             id="path26"
             style="fill:#000000;fill-opacity:1;fill-rule:nonzero;stroke:none"
             d="m 0,0 c -23.986,0 -43.5,-19.514 -43.5,-43.5 0,-23.986 19.514,-43.5 43.5,-43.5 0.385,-0.012 0.761,0.16 1.06,0.454 0.297,0.294 0.468,0.675 0.468,1.046 0,0.371 -0.171,0.752 -0.468,1.046 C 0.766,-84.165 0.39,-84 0.023,-84 H 0.007 c -22.339,0 -40.507,18.168 -40.507,40.5 0,22.332 18.168,40.5 40.5,40.5 22.332,0 40.5,-18.168 40.5,-40.5 0,-18.881 -13.387,-35.501 -31.831,-39.52 -0.396,-0.067 -0.746,-0.306 -0.986,-0.661 -0.241,-0.355 -0.332,-0.77 -0.253,-1.139 0.08,-0.369 0.335,-0.709 0.7,-0.933 0.365,-0.224 0.784,-0.297 1.149,-0.201 C 29.117,-81.631 43.5,-63.778 43.5,-43.5 43.5,-19.514 23.986,0 0,0" /></g><g
           transform="translate(38.3125,27.0006)"
           id="g28"><path
             id="path30"
             style="fill:#000000;fill-opacity:1;fill-rule:nonzero;stroke:none"
             d="m 0,0 c -0.344,-0.017 -0.715,-0.202 -0.995,-0.509 -0.279,-0.307 -0.429,-0.694 -0.412,-1.061 0.017,-0.367 0.203,-0.739 0.51,-1.018 0.306,-0.279 0.695,-0.413 1.061,-0.413 L 10.188,-3 c 0.361,-0.013 0.76,0.16 1.059,0.454 0.298,0.294 0.469,0.675 0.469,1.046 0,0.371 -0.171,0.752 -0.469,1.046 C 10.949,-0.161 10.614,0.003 10.194,0 H 6.687 v 24.5 c 0,0.771 -0.728,1.5 -1.5,1.5 H 0.013 C -0.352,25.979 -0.718,25.795 -0.995,25.491 -1.274,25.184 -1.424,24.797 -1.407,24.43 -1.371,23.658 -0.61,23.008 0.164,22.999 L 3.688,23 V 0 Z" /></g></g></g></g></svg>