<?xml version="1.0" encoding="UTF-8" standalone="no"?>
<svg
   xmlns:dc="http://purl.org/dc/elements/1.1/"
   xmlns:cc="http://creativecommons.org/ns#"
   xmlns:rdf="http://www.w3.org/1999/02/22-rdf-syntax-ns#"
   xmlns:svg="http://www.w3.org/2000/svg"
   xmlns="http://www.w3.org/2000/svg"
   viewBox="0 0 118.86666 118.7325"
   height="118.73251"
   width="118.86666"
   xml:space="preserve"
   id="svg2"
   version="1.1"><metadata
     id="metadata8"><rdf:RDF><cc:Work
         rdf:about=""><dc:format>image/svg+xml</dc:format><dc:type
           rdf:resource="http://purl.org/dc/dcmitype/StillImage" /></cc:Work></rdf:RDF></metadata><defs
     id="defs6"><clipPath
       id="clipPath18"
       clipPathUnits="userSpaceOnUse"><path
         id="path16"
         d="M 0,89.05 H 89.15 V 0 H 0 Z" /></clipPath></defs><g
     transform="matrix(1.3333333,0,0,-1.3333333,0,118.7329)"
     id="g10"><g
       id="g12"><g
         clip-path="url(#clipPath18)"
         id="g14"><g
           transform="translate(77.8007,26.9893)"
           id="g20"><path
             id="path22"
             style="fill:#000000;fill-opacity:1;fill-rule:nonzero;stroke:none"
             d="m 0,0 -0.339,0.21 c -4.867,3.019 -11.154,2.305 -15.287,-1.732 -4.045,-4.045 -4.756,-10.29 -1.725,-15.179 l 0.209,-0.337 -6.834,-6.834 -34.606,34.606 3.399,3.401 -1.793,1.793 -3.399,-3.401 -14.308,14.308 7.611,7.61 0.324,-0.165 c 4.758,-2.426 10.513,-1.5 14.319,2.308 3.808,3.808 4.736,9.562 2.309,14.32 l -0.165,0.323 7.61,7.611 14.307,-14.307 -3.401,-3.4 1.793,-1.793 3.401,3.4 L 8.03,8.137 Z m 10.999,9.156 -52.727,52.525 c -0.21,0.241 -0.487,0.365 -0.809,0.378 -0.398,0.017 -0.731,-0.124 -0.984,-0.378 l -9.3,-9.3 c -0.44,-0.439 -0.519,-1.099 -0.207,-1.723 2.594,-3.727 2.108,-8.875 -1.194,-12.177 -3.301,-3.303 -8.45,-3.789 -12.238,-1.158 -0.19,0.137 -0.409,0.196 -0.63,0.196 -0.383,0 -0.772,-0.178 -1.032,-0.438 l -9.3,-9.3 c -0.254,-0.255 -0.391,-0.613 -0.378,-0.985 0.013,-0.321 0.137,-0.599 0.35,-0.781 l 52.629,-52.626 c 0.255,-0.254 0.633,-0.374 0.983,-0.378 0.322,0.012 0.601,0.136 0.783,0.349 l 8.527,8.529 c 0.499,0.499 0.519,1.223 0.052,1.846 -3.181,3.818 -2.911,9.395 0.647,12.953 3.558,3.56 9.136,3.83 12.975,0.63 0.601,-0.448 1.326,-0.427 1.826,0.071 l 10,10 c 0.254,0.254 0.39,0.612 0.377,0.983 -0.012,0.322 -0.136,0.601 -0.35,0.784" /></g><g
           transform="translate(26.331,44.7939)"
           id="g24"><path
             id="path26"
             style="fill:#000000;fill-opacity:1;fill-rule:nonzero;stroke:none"
             d="M 0,0 3.535,3.536 1.696,5.374 -1.839,1.839 Z" /></g><g
           transform="translate(35.2353,57.3857)"
           id="g28"><path
             id="path30"
             style="fill:#000000;fill-opacity:1;fill-rule:nonzero;stroke:none"
             d="m 0,0 -3.536,-3.535 1.839,-1.839 3.535,3.536 z" /></g><g
           transform="translate(42.4423,64.6035)"
           id="g32"><path
             id="path34"
             style="fill:#000000;fill-opacity:1;fill-rule:nonzero;stroke:none"
             d="m 0,0 -3.535,-3.535 1.838,-1.839 3.536,3.536 z" /></g><g
           transform="translate(38.1552,32.9287)"
           id="g36"><path
             id="path38"
             style="fill:#000000;fill-opacity:1;fill-rule:nonzero;stroke:none"
             d="M 0,0 17.96,17.961 16.122,19.799 -1.839,1.839 Z" /></g><g
           transform="translate(45.831,25.2979)"
           id="g40"><path
             id="path42"
             style="fill:#000000;fill-opacity:1;fill-rule:nonzero;stroke:none"
             d="M 0,0 17.96,17.96 16.122,19.799 -1.839,1.838 Z" /></g></g></g></g></svg>