<?xml version="1.0" encoding="UTF-8" standalone="no"?>
<svg
   xmlns:dc="http://purl.org/dc/elements/1.1/"
   xmlns:cc="http://creativecommons.org/ns#"
   xmlns:rdf="http://www.w3.org/1999/02/22-rdf-syntax-ns#"
   xmlns:svg="http://www.w3.org/2000/svg"
   xmlns="http://www.w3.org/2000/svg"
   viewBox="0 0 133.33333 106.6626"
   height="106.6626"
   width="133.33333"
   xml:space="preserve"
   id="svg2"
   version="1.1"><metadata
     id="metadata8"><rdf:RDF><cc:Work
         rdf:about=""><dc:format>image/svg+xml</dc:format><dc:type
           rdf:resource="http://purl.org/dc/dcmitype/StillImage" /></cc:Work></rdf:RDF></metadata><defs
     id="defs6"><clipPath
       id="clipPath18"
       clipPathUnits="userSpaceOnUse"><path
         id="path16"
         d="M 0,79.997 H 100 V 0 H 0 Z" /></clipPath></defs><g
     transform="matrix(1.3333333,0,0,-1.3333333,0,106.66266)"
     id="g10"><g
       id="g12"><g
         clip-path="url(#clipPath18)"
         id="g14"><g
           transform="translate(60.623,0.1596)"
           id="g20"><path
             id="path22"
             style="fill:#000000;fill-opacity:1;fill-rule:nonzero;stroke:none"
             d="m 0,0 c -1.895,1.772 -3.953,-0.8 -6.591,-0.001 -1.457,0.441 -2.28,1.98 -1.837,3.438 0.441,1.457 1.941,2.116 3.438,1.837 C -2.264,4.766 -0.161,2.209 0,0 M 8.588,2.475 C 6.693,4.25 4.635,1.674 1.996,2.474 0.54,2.916 -0.283,4.455 0.159,5.912 0.6,7.37 2.099,8.029 3.596,7.75 6.322,7.24 8.425,4.684 8.588,2.475 M 0.781,13.384 C 0.302,10.833 -2.88,11.695 -4.537,9.489 -5.451,8.271 -5.205,6.545 -3.988,5.63 c 1.217,-0.915 2.817,-0.56 3.86,0.55 1.899,2.02 2.085,5.326 0.909,7.204 M 17.445,8.298 C 15.149,9.509 13.844,6.479 11.09,6.552 9.569,6.593 8.365,7.86 8.407,9.382 c 0.039,1.521 1.311,2.556 2.827,2.681 2.764,0.233 5.469,-1.676 6.211,-3.765 M 7.028,16.751 C 7.242,14.164 3.944,14.15 2.931,11.587 2.372,10.171 3.067,8.569 4.484,8.011 5.899,7.45 7.347,8.215 8.059,9.563 c 1.296,2.452 0.599,5.688 -1.031,7.188 m 18.081,-1.25 c -2.537,0.538 -2.967,-2.73 -5.639,-3.411 -1.475,-0.376 -2.977,0.515 -3.351,1.991 -0.376,1.475 0.565,2.815 1.99,3.353 2.598,0.973 5.719,-0.126 7,-1.933 m -12.323,5.295 c 0.908,-2.43 -2.261,-3.342 -2.536,-6.084 -0.152,-1.516 0.953,-2.866 2.467,-3.021 1.516,-0.151 2.701,0.98 3.021,2.47 0.577,2.712 -0.975,5.636 -2.952,6.635 m 18.392,1.266 c -2.539,0.539 -2.969,-2.73 -5.641,-3.412 -1.475,-0.375 -2.975,0.517 -3.352,1.992 -0.376,1.477 0.566,2.817 1.99,3.354 2.598,0.974 5.721,-0.127 7.003,-1.934 m -12.326,5.296 c 0.911,-2.431 -2.259,-3.342 -2.534,-6.085 -0.152,-1.514 0.952,-2.866 2.467,-3.018 1.515,-0.154 2.7,0.978 3.019,2.467 0.577,2.713 -0.974,5.636 -2.952,6.636 m 16.897,4.188 C 33.156,31.43 33.561,28.157 31.145,26.829 29.81,26.095 28.134,26.581 27.4,27.916 c -0.733,1.335 -0.158,2.868 1.088,3.743 2.269,1.597 5.568,1.314 7.261,-0.113 M 22.49,33.581 c 1.489,-2.125 -1.35,-3.801 -0.93,-6.524 0.232,-1.506 1.642,-2.536 3.146,-2.305 1.505,0.231 2.37,1.624 2.304,3.146 -0.12,2.771 -2.356,5.212 -4.52,5.683 m 16.009,7.892 c -2.5,-0.699 -1.366,-3.796 -3.417,-5.636 -1.133,-1.018 -2.877,-0.923 -3.895,0.211 -1.016,1.133 -0.803,2.757 0.212,3.892 1.849,2.068 5.126,2.54 7.1,1.533 M 25.123,40.452 c 1.934,-1.732 -0.453,-4.008 0.572,-6.566 0.568,-1.412 2.172,-2.098 3.586,-1.531 1.414,0.567 1.939,2.119 1.531,3.586 -0.745,2.671 -3.476,4.543 -5.689,4.511 m 14.254,11.217 c -2.281,-1.236 -0.491,-4.004 -2.086,-6.253 -0.879,-1.242 -2.6,-1.536 -3.843,-0.655 -1.241,0.879 -1.394,2.511 -0.655,3.842 1.346,2.426 4.436,3.611 6.584,3.066 M 26.559,47.714 c 2.269,-1.262 0.445,-4.008 2.012,-6.276 0.865,-1.252 2.584,-1.566 3.836,-0.7 1.252,0.866 1.422,2.496 0.698,3.835 -1.316,2.441 -4.394,3.662 -6.546,3.141 M 39.083,61.242 C 36.948,59.765 39.032,57.21 37.695,54.8 c -0.74,-1.331 -2.418,-1.811 -3.748,-1.072 -1.333,0.74 -1.663,2.344 -1.072,3.748 1.071,2.558 4.015,4.074 6.208,3.766 m -12.31,-5.331 c 2.393,-1.006 0.88,-3.936 2.687,-6.019 0.998,-1.151 2.738,-1.274 3.888,-0.276 1.15,0.997 1.143,2.636 0.277,3.889 -1.576,2.281 -4.768,3.158 -6.852,2.406 m 10.019,14.698 c -1.96,-1.702 0.39,-4.015 -0.676,-6.557 -0.591,-1.403 -2.206,-2.064 -3.608,-1.476 -1.405,0.59 -1.908,2.148 -1.477,3.609 0.786,2.66 3.547,4.489 5.761,4.424 M 25.139,63.963 c 2.488,-0.739 1.305,-3.816 3.328,-5.689 1.117,-1.035 2.862,-0.968 3.896,0.149 1.033,1.117 0.849,2.745 -0.149,3.896 -1.819,2.097 -5.087,2.62 -7.075,1.644 m 6.929,15.875 c -1.543,-2.087 1.254,-3.833 0.765,-6.546 -0.271,-1.498 -1.703,-2.494 -3.2,-2.224 -1.5,0.27 -2.329,1.683 -2.225,3.202 0.19,2.766 2.484,5.15 4.66,5.568 m -9.929,-9.02 c 2.59,-0.182 2.104,-3.442 4.485,-4.831 1.314,-0.767 3.002,-0.321 3.77,0.993 0.767,1.315 0.23,2.864 -0.993,3.771 -2.229,1.651 -5.533,1.451 -7.262,0.067 M -16.255,5.275 c 1.496,0.279 2.996,-0.38 3.438,-1.837 0.442,-1.458 -0.381,-2.997 -1.838,-3.438 -2.638,-0.799 -4.697,1.773 -6.591,0.001 0.162,2.208 2.264,4.765 4.991,5.274 m -8.587,2.475 c 1.497,0.279 2.996,-0.38 3.438,-1.838 0.442,-1.457 -0.381,-2.996 -1.838,-3.438 -2.637,-0.8 -4.697,1.776 -6.591,10e-4 0.162,2.209 2.265,4.765 4.991,5.275 m 3.724,-1.57 c 1.042,-1.109 2.644,-1.465 3.86,-0.55 1.216,0.915 1.463,2.642 0.548,3.859 -1.657,2.205 -4.838,1.344 -5.317,3.895 -1.175,-1.878 -0.991,-5.184 0.909,-7.204 m -11.363,5.883 c 1.517,-0.125 2.789,-1.16 2.828,-2.681 0.042,-1.522 -1.161,-2.789 -2.683,-2.83 -2.755,-0.073 -4.06,2.957 -6.355,1.746 0.741,2.089 3.446,3.998 6.21,3.765 m 3.175,-2.5 c 0.712,-1.348 2.161,-2.112 3.576,-1.552 1.417,0.559 2.111,2.16 1.552,3.576 -1.013,2.563 -4.31,2.577 -4.097,5.164 -1.63,-1.5 -2.327,-4.736 -1.031,-7.188 m -10.05,7.871 c 1.425,-0.537 2.366,-1.878 1.99,-3.353 -0.375,-1.477 -1.876,-2.367 -3.351,-1.991 -2.671,0.681 -3.102,3.949 -5.639,3.411 1.281,1.807 4.403,2.906 7,1.933 m 2.373,-3.273 c 0.319,-1.489 1.504,-2.621 3.02,-2.47 1.514,0.154 2.619,1.505 2.467,3.021 -0.275,2.742 -3.444,3.654 -2.537,6.084 -1.975,-0.999 -3.527,-3.923 -2.95,-6.635 m -8.438,9.834 c 1.424,-0.536 2.366,-1.877 1.989,-3.354 -0.376,-1.476 -1.876,-2.367 -3.351,-1.992 -2.671,0.682 -3.102,3.951 -5.641,3.412 1.282,1.808 4.405,2.909 7.003,1.934 m 2.372,-3.273 c 0.318,-1.489 1.505,-2.621 3.019,-2.467 1.515,0.151 2.62,1.504 2.467,3.018 -0.276,2.743 -3.445,3.654 -2.535,6.085 -1.978,-1 -3.529,-3.923 -2.951,-6.636 m -6.685,10.937 c 1.246,-0.875 1.822,-2.408 1.087,-3.743 -0.733,-1.335 -2.41,-1.821 -3.745,-1.087 -2.415,1.328 -2.01,4.601 -4.603,4.717 1.694,1.427 4.992,1.71 7.261,0.113 m 1.478,-3.761 c -0.066,-1.521 0.799,-2.913 2.304,-3.146 1.504,-0.231 2.913,0.799 3.145,2.305 0.42,2.724 -2.418,4.399 -0.929,6.524 -2.164,-0.471 -4.399,-2.912 -4.52,-5.683 m -4.389,12.042 c 1.015,-1.135 1.228,-2.759 0.211,-3.892 -1.017,-1.134 -2.761,-1.229 -3.894,-0.211 -2.05,1.84 -0.917,4.937 -3.417,5.636 1.975,1.007 5.251,0.535 7.1,-1.533 m 0.587,-3.999 c -0.409,-1.467 0.117,-3.02 1.531,-3.586 1.414,-0.566 3.018,0.119 3.585,1.531 1.026,2.559 -1.361,4.834 0.573,6.566 -2.213,0.032 -4.944,-1.84 -5.689,-4.511 m -1.982,12.662 c 0.739,-1.332 0.586,-2.963 -0.654,-3.842 -1.243,-0.881 -2.964,-0.587 -3.843,0.655 -1.595,2.249 0.196,5.017 -2.086,6.253 2.147,0.545 5.239,-0.64 6.583,-3.066 m -0.312,-4.03 c -0.723,-1.34 -0.552,-2.97 0.7,-3.835 1.252,-0.865 2.97,-0.552 3.835,0.7 1.567,2.269 -0.256,5.014 2.012,6.276 -2.152,0.521 -5.229,-0.7 -6.547,-3.141 m 0.231,12.903 c 0.59,-1.404 0.261,-3.008 -1.072,-3.748 -1.33,-0.739 -3.008,-0.259 -3.747,1.072 -1.337,2.41 0.746,4.966 -1.389,6.442 2.193,0.308 5.137,-1.208 6.208,-3.766 m -0.751,-3.972 c -0.864,-1.253 -0.873,-2.892 0.277,-3.889 1.15,-0.998 2.891,-0.875 3.889,0.276 1.807,2.083 0.294,5.013 2.687,6.019 -2.084,0.753 -5.276,-0.124 -6.853,-2.406 m 2.595,12.682 c 0.431,-1.461 -0.072,-3.02 -1.477,-3.609 -1.403,-0.588 -3.018,0.072 -3.608,1.476 -1.066,2.542 1.284,4.854 -0.676,6.557 2.215,0.064 4.975,-1.765 5.761,-4.424 m -1.181,-3.867 c -0.998,-1.151 -1.185,-2.779 -0.149,-3.896 1.033,-1.117 2.778,-1.185 3.895,-0.149 2.023,1.873 0.841,4.951 3.329,5.689 -1.99,0.976 -5.258,0.453 -7.075,-1.644 m 4.805,11.95 c 0.104,-1.519 -0.726,-2.932 -2.225,-3.202 -1.497,-0.27 -2.931,0.726 -3.201,2.224 -0.489,2.713 2.308,4.459 0.765,6.546 2.176,-0.417 4.471,-2.801 4.661,-5.568 m -1.993,-3.518 c -1.224,-0.907 -1.76,-2.455 -0.993,-3.771 0.767,-1.314 2.454,-1.76 3.77,-0.993 2.381,1.389 1.895,4.649 4.484,4.831 -1.729,1.384 -5.033,1.584 -7.261,-0.067" /></g></g></g></g></svg>