<?xml version="1.0" encoding="UTF-8" standalone="no"?>
<svg
   xmlns:dc="http://purl.org/dc/elements/1.1/"
   xmlns:cc="http://creativecommons.org/ns#"
   xmlns:rdf="http://www.w3.org/1999/02/22-rdf-syntax-ns#"
   xmlns:svg="http://www.w3.org/2000/svg"
   xmlns="http://www.w3.org/2000/svg"
   viewBox="0 0 105.33333 105.33333"
   height="105.33333"
   width="105.33333"
   xml:space="preserve"
   id="svg2"
   version="1.1"><metadata
     id="metadata8"><rdf:RDF><cc:Work
         rdf:about=""><dc:format>image/svg+xml</dc:format><dc:type
           rdf:resource="http://purl.org/dc/dcmitype/StillImage" /></cc:Work></rdf:RDF></metadata><defs
     id="defs6"><clipPath
       id="clipPath18"
       clipPathUnits="userSpaceOnUse"><path
         id="path16"
         d="M 0,79 H 79 V 0 H 0 Z" /></clipPath></defs><g
     transform="matrix(1.3333333,0,0,-1.3333333,0,105.33333)"
     id="g10"><g
       id="g12"><g
         clip-path="url(#clipPath18)"
         id="g14"><g
           transform="translate(2.9951,45.4961)"
           id="g20"><path
             id="path22"
             style="fill:#000000;fill-opacity:1;fill-rule:nonzero;stroke:none"
             d="m 0,0 c 1.615,17.45 16.049,30.626 33.574,30.647 h 5.86 C 56.961,30.626 71.395,17.45 73.009,0 l 0.152,-1.639 H -0.151 Z m -1.566,-4.496 h 76.142 c 0.788,0 1.429,0.641 1.429,1.429 C 75.981,17.074 59.575,33.48 39.432,33.504 H 33.576 C 13.435,33.48 -2.972,17.074 -2.995,-3.069 c 0,-0.786 0.641,-1.427 1.429,-1.427" /></g><g
           transform="translate(76.1426,13.1426)"
           id="g24"><path
             id="path26"
             style="fill:#000000;fill-opacity:1;fill-rule:nonzero;stroke:none"
             d="M 0,0 C 0,-5.671 -4.614,-10.285 -10.285,-10.285 H -63 c -5.671,0 -10.286,4.614 -10.286,10.285 v 4.429 h 39.097 l 11.333,-8.5 c 0.503,-0.379 1.209,-0.377 1.714,0 l 11.331,8.5 H 0 Z m 1.429,7.286 h -11.714 c -0.308,0 -0.612,-0.101 -0.859,-0.286 L -22,-1.143 -32.857,7 c -0.246,0.185 -0.55,0.286 -0.857,0.286 h -41 c -0.787,0 -1.429,-0.64 -1.429,-1.429 V 0 c 0.009,-7.237 5.906,-13.134 13.145,-13.143 h 52.713 c 7.237,0.009 13.134,5.906 13.142,13.145 v 5.855 c 0,0.789 -0.64,1.429 -1.428,1.429" /></g><g
           transform="translate(77.5713,32.1426)"
           id="g28"><path
             id="path30"
             style="fill:#000000;fill-opacity:1;fill-rule:nonzero;stroke:none"
             d="m 0,0 h -76.143 c -0.787,0 -1.428,-0.641 -1.428,-1.429 0,-0.787 0.641,-1.427 1.428,-1.427 H 0 c 0.788,0 1.429,0.64 1.429,1.427 C 1.429,-0.641 0.788,0 0,0" /></g><g
           transform="translate(24.8569,61.4287)"
           id="g32"><path
             id="path34"
             style="fill:#000000;fill-opacity:1;fill-rule:nonzero;stroke:none"
             d="m 0,0 c -0.788,0 -1.428,-0.641 -1.428,-1.429 v -2.928 c 0,-0.789 0.64,-1.429 1.428,-1.429 0.788,0 1.429,0.64 1.429,1.429 v 2.928 C 1.429,-0.641 0.788,0 0,0" /></g><g
           transform="translate(39.5,61.4287)"
           id="g36"><path
             id="path38"
             style="fill:#000000;fill-opacity:1;fill-rule:nonzero;stroke:none"
             d="m 0,0 c -0.788,0 -1.429,-0.641 -1.429,-1.429 v -2.928 c 0,-0.789 0.641,-1.429 1.429,-1.429 0.788,0 1.429,0.64 1.429,1.429 v 2.928 C 1.429,-0.641 0.788,0 0,0" /></g><g
           transform="translate(54.1426,61.4287)"
           id="g40"><path
             id="path42"
             style="fill:#000000;fill-opacity:1;fill-rule:nonzero;stroke:none"
             d="m 0,0 c -0.788,0 -1.429,-0.641 -1.429,-1.429 v -2.928 c 0,-0.789 0.641,-1.429 1.429,-1.429 0.788,0 1.429,0.64 1.429,1.429 v 2.928 C 1.429,-0.641 0.788,0 0,0" /></g></g></g></g></svg>