<?xml version="1.0" encoding="UTF-8" standalone="no"?>
<svg
   xmlns:dc="http://purl.org/dc/elements/1.1/"
   xmlns:cc="http://creativecommons.org/ns#"
   xmlns:rdf="http://www.w3.org/1999/02/22-rdf-syntax-ns#"
   xmlns:svg="http://www.w3.org/2000/svg"
   xmlns="http://www.w3.org/2000/svg"
   viewBox="0 0 120.004 60.029331"
   height="60.029331"
   width="120.004"
   xml:space="preserve"
   id="svg2"
   version="1.1"><metadata
     id="metadata8"><rdf:RDF><cc:Work
         rdf:about=""><dc:format>image/svg+xml</dc:format><dc:type
           rdf:resource="http://purl.org/dc/dcmitype/StillImage" /></cc:Work></rdf:RDF></metadata><defs
     id="defs6"><clipPath
       id="clipPath18"
       clipPathUnits="userSpaceOnUse"><path
         id="path16"
         d="M 0,45.022 H 90.003 V 0 H 0 Z" /></clipPath></defs><g
     transform="matrix(1.3333333,0,0,-1.3333333,0,60.029332)"
     id="g10"><g
       id="g12"><g
         clip-path="url(#clipPath18)"
         id="g14"><g
           transform="translate(67,25.0967)"
           id="g20"><path
             id="path22"
             style="fill:#000000;fill-opacity:1;fill-rule:nonzero;stroke:none"
             d="m 0,0 h -66.25 c -0.409,0.006 -0.745,-0.321 -0.75,-0.73 v -0.01 -3.77 c 0,-0.408 0.331,-0.74 0.74,-0.74 H -66.25 0 v -19.32 c 0.007,-0.298 0.255,-0.534 0.553,-0.527 0.133,0.003 0.26,0.056 0.357,0.147 l 22,22 c 0.072,0.101 0.105,0.226 0.09,0.35 0.002,0.141 -0.056,0.275 -0.16,0.37 l -22,22 C 0.685,19.925 0.45,19.969 0.25,19.88 0.049,19.801 -0.082,19.606 -0.08,19.39 Z" /></g></g></g></g></svg>