<?xml version="1.0" encoding="UTF-8" standalone="no"?>
<svg
   xmlns:dc="http://purl.org/dc/elements/1.1/"
   xmlns:cc="http://creativecommons.org/ns#"
   xmlns:rdf="http://www.w3.org/1999/02/22-rdf-syntax-ns#"
   xmlns:svg="http://www.w3.org/2000/svg"
   xmlns="http://www.w3.org/2000/svg"
   viewBox="0 0 116.66653 43.199733"
   height="43.199734"
   width="116.66653"
   xml:space="preserve"
   id="svg2"
   version="1.1"><metadata
     id="metadata8"><rdf:RDF><cc:Work
         rdf:about=""><dc:format>image/svg+xml</dc:format><dc:type
           rdf:resource="http://purl.org/dc/dcmitype/StillImage" /></cc:Work></rdf:RDF></metadata><defs
     id="defs6"><clipPath
       id="clipPath18"
       clipPathUnits="userSpaceOnUse"><path
         id="path16"
         d="M 0,32.4 H 87.5 V 0 H 0 Z" /></clipPath></defs><g
     transform="matrix(1.3333333,0,0,-1.3333333,0,43.199732)"
     id="g10"><g
       id="g12"><g
         clip-path="url(#clipPath18)"
         id="g14"><g
           transform="translate(67.6499,1.7998)"
           id="g20"><path
             id="path22"
             style="fill:#000000;fill-opacity:1;fill-rule:nonzero;stroke:none"
             d="m 0,0 c -7.913,0 -14.35,6.437 -14.35,14.35 0,7.913 6.437,14.35 14.35,14.35 7.913,0 14.35,-6.437 14.35,-14.35 C 14.35,6.437 7.913,0 0,0 m -47.6,0 c -7.913,0 -14.35,6.437 -14.35,14.35 0,7.913 6.437,14.35 14.35,14.35 7.912,0 14.35,-6.437 14.35,-14.35 C -33.25,6.437 -39.688,0 -47.6,0 M 16.151,15.4 C 15.577,23.923 8.482,30.6 0,30.6 c -7.569,0 -14.012,-5.105 -15.668,-12.415 l -0.28,-1.234 -0.948,0.837 C -18.466,19.173 -21.01,20 -23.7,20 c -2.616,0 -5.103,-0.813 -6.823,-2.229 l -0.923,-0.76 -0.283,1.162 C -33.509,25.49 -39.994,30.6 -47.5,30.6 c -8.482,0 -15.577,-6.677 -16.151,-15.2 l -0.048,-0.7 h -3.951 v -1.9 h 4.006 l 0.087,-0.65 C -62.49,4.197 -55.63,-1.8 -47.6,-1.8 c 8.905,0 16.15,7.245 16.15,16.15 l 0.049,0.257 c 1.078,2.409 4.086,3.993 7.501,3.993 3.479,0 6.561,-1.633 7.496,-3.972 l 0.05,-0.231 C -16.35,5.445 -9.105,-1.8 -0.2,-1.8 c 8.175,0 14.886,5.866 15.956,13.949 l 0.087,0.651 h 4.007 v 1.9 h -3.651 z" /></g></g></g></g></svg>