<?xml version="1.0" encoding="UTF-8" standalone="no"?>
<svg
   xmlns:dc="http://purl.org/dc/elements/1.1/"
   xmlns:cc="http://creativecommons.org/ns#"
   xmlns:rdf="http://www.w3.org/1999/02/22-rdf-syntax-ns#"
   xmlns:svg="http://www.w3.org/2000/svg"
   xmlns="http://www.w3.org/2000/svg"
   viewBox="0 0 176.11867 67.469063"
   height="67.469063"
   width="176.11867"
   xml:space="preserve"
   id="svg2"
   version="1.1"><metadata
     id="metadata8"><rdf:RDF><cc:Work
         rdf:about=""><dc:format>image/svg+xml</dc:format><dc:type
           rdf:resource="http://purl.org/dc/dcmitype/StillImage" /></cc:Work></rdf:RDF></metadata><defs
     id="defs6"><clipPath
       id="clipPath18"
       clipPathUnits="userSpaceOnUse"><path
         id="path16"
         d="M 0,50.602 H 132.09 V 0 H 0 Z" /></clipPath></defs><g
     transform="matrix(1.3333333,0,0,-1.3333333,-5.3333332e-4,67.469332)"
     id="g10"><g
       id="g12"><g
         clip-path="url(#clipPath18)"
         id="g14"><g
           transform="translate(77.999,31.9512)"
           id="g20"><path
             id="path22"
             style="fill:#000000;fill-opacity:1;fill-rule:nonzero;stroke:none"
             d="m 0,0 c -0.271,-0.284 -0.358,-0.69 -0.23,-1.06 l 6.865,-19.664 -4.249,-4.249 -9.707,16.754 c -0.292,0.493 -0.933,0.659 -1.431,0.366 -0.074,-0.044 -0.143,-0.098 -0.205,-0.159 l -11.322,-11.323 c -0.178,-0.18 -0.284,-0.417 -0.299,-0.669 l -0.449,-7.626 -1.568,-1.567 -4.046,7.272 c -0.096,0.175 -0.239,0.319 -0.412,0.413 l -7.275,4.048 1.567,1.568 7.627,0.449 c 0.253,0.015 0.49,0.122 0.67,0.301 l 11.321,11.32 c 0.407,0.407 0.407,1.068 -0.002,1.476 -0.063,0.062 -0.132,0.116 -0.208,0.161 l -16.751,9.706 4.25,4.249 L -6.19,4.9 c 0.374,-0.129 0.776,-0.039 1.066,0.237 L 5.254,15.515 c 1.414,1.415 3.716,1.414 5.13,0 1.414,-1.415 1.414,-3.716 0,-5.131 z M 7.858,18.651 C 6.303,18.663 4.865,18.074 3.779,16.988 l -9.916,-9.916 -19.665,6.866 c -0.375,0.13 -0.8,0.031 -1.079,-0.251 l -5.661,-5.661 c -0.406,-0.406 -0.407,-1.068 0,-1.474 0.062,-0.062 0.132,-0.116 0.21,-0.163 l 16.751,-9.705 -10.065,-10.064 -7.627,-0.449 c -0.264,-0.016 -0.509,-0.131 -0.684,-0.316 l -2.836,-2.836 c -0.397,-0.415 -0.383,-1.076 0.033,-1.474 0.066,-0.064 0.141,-0.118 0.217,-0.159 l 8.221,-4.577 4.575,-8.218 c 0.189,-0.346 0.547,-0.542 0.917,-0.542 0.169,0 0.34,0.041 0.499,0.128 0.081,0.044 0.155,0.098 0.226,0.166 l 2.822,2.824 c 0.191,0.182 0.306,0.427 0.323,0.692 l 0.449,7.626 10.064,10.064 9.708,-16.754 c 0.291,-0.494 0.93,-0.66 1.427,-0.367 0.076,0.045 0.145,0.099 0.208,0.161 l 5.657,5.658 c 0.285,0.279 0.385,0.705 0.254,1.084 l -6.866,19.663 9.917,9.917 c 2.226,2.226 2.226,5.85 0,8.077 -1.058,1.059 -2.479,1.649 -4,1.663" /></g><g
           transform="translate(7.4824,19.4092)"
           id="g24"><path
             id="path26"
             style="fill:#000000;fill-opacity:1;fill-rule:nonzero;stroke:none"
             d="m 0,0 c -3.023,0 -5.482,2.459 -5.482,5.483 0,3.023 2.459,5.482 5.482,5.482 3.023,0 5.483,-2.459 5.483,-5.482 C 5.483,2.459 3.023,0 0,0 m 0,12.965 c -4.126,0 -7.482,-3.356 -7.482,-7.482 C -7.482,1.357 -4.126,-2 0,-2 4.126,-2 7.483,1.357 7.483,5.483 7.483,9.609 4.126,12.965 0,12.965" /></g><g
           transform="translate(124.6074,19.4092)"
           id="g28"><path
             id="path30"
             style="fill:#000000;fill-opacity:1;fill-rule:nonzero;stroke:none"
             d="m 0,0 c -3.023,0 -5.482,2.459 -5.482,5.483 0,3.023 2.459,5.482 5.482,5.482 3.023,0 5.482,-2.459 5.482,-5.482 C 5.482,2.459 3.023,0 0,0 m 0,12.965 c -4.126,0 -7.482,-3.356 -7.482,-7.482 C -7.482,1.357 -4.126,-2 0,-2 4.126,-2 7.482,1.357 7.482,5.483 7.482,9.609 4.126,12.965 0,12.965" /></g></g></g></g></svg>