<?xml version="1.0" encoding="UTF-8" standalone="no"?>
<svg
   xmlns:dc="http://purl.org/dc/elements/1.1/"
   xmlns:cc="http://creativecommons.org/ns#"
   xmlns:rdf="http://www.w3.org/1999/02/22-rdf-syntax-ns#"
   xmlns:svg="http://www.w3.org/2000/svg"
   xmlns="http://www.w3.org/2000/svg"
   viewBox="0 0 112.666 112.66666"
   height="112.66666"
   width="112.666"
   xml:space="preserve"
   id="svg2"
   version="1.1"><metadata
     id="metadata8"><rdf:RDF><cc:Work
         rdf:about=""><dc:format>image/svg+xml</dc:format><dc:type
           rdf:resource="http://purl.org/dc/dcmitype/StillImage" /></cc:Work></rdf:RDF></metadata><defs
     id="defs6"><clipPath
       id="clipPath18"
       clipPathUnits="userSpaceOnUse"><path
         id="path16"
         d="M 0,84.5 H 84.5 V 0 H 0 Z" /></clipPath></defs><g
     transform="matrix(1.3333333,0,0,-1.3333333,0,112.66666)"
     id="g10"><g
       id="g12"><g
         clip-path="url(#clipPath18)"
         id="g14"><g
           transform="translate(69.6665,2.083)"
           id="g20"><path
             id="path22"
             style="fill:#000000;fill-opacity:1;fill-rule:nonzero;stroke:none"
             d="m 0,0 h -20.833 v 6.167 c 0,3.691 -2.892,6.583 -6.584,6.583 C -31.108,12.75 -34,9.858 -34,6.167 V 0 H -54.833 V 16.584 H 0 Z m -22.667,0 h -9.5 v 6.167 c 0,2.663 2.087,4.75 4.75,4.75 2.664,0 4.75,-2.087 4.75,-4.75 z m -34.5,18.417 c -2.644,0 -4.966,0.546 -6.901,1.622 l -1.323,0.735 1.501,0.198 c 3.625,0.475 7.862,1.685 12.594,3.595 0.15,0.042 0.268,0.074 0.391,0.086 9.378,3.885 18.003,9.279 21.282,11.422 0.809,0.517 1.466,0.946 1.932,1.252 l 0.274,0.18 0.521,-0.341 C -8.578,25.148 2.763,21.727 9.051,20.972 L 10.704,20.773 9.215,20.028 C 7.833,19.337 5.616,18.417 2.333,18.417 Z M -4.25,42.084 V 26.837 l -0.699,0.303 c -10.941,4.741 -20.619,11.428 -21.842,12.298 -0.445,0.22 -0.959,0.19 -1.198,0.03 l -0.004,0.005 C -28.974,38.77 -38.779,31.952 -49.884,27.14 l -0.699,-0.303 v 15.247 z m -51.038,2.693 -1.926,0.413 1.89,0.556 c 9.313,2.74 23.419,11.524 27.626,14.384 l 0.279,0.189 0.28,-0.186 c 2.452,-1.634 6.279,-4.086 10.592,-6.496 0.033,-0.016 0.076,-0.026 0.118,-0.037 l 0.141,-0.055 C -9.345,49.603 -3.7,46.979 0.491,45.746 L 2.381,45.19 0.455,44.777 C -2.212,44.207 -5.393,43.917 -9,43.917 h -36.833 c -3.607,0 -6.788,0.29 -9.455,0.86 M -17,66.167 V 56.026 l -0.752,0.439 c -1.189,0.693 -2.311,1.364 -3.338,1.986 -3.367,2.067 -5.734,3.67 -5.757,3.686 -0.172,0.081 -0.405,0.197 -0.57,0.197 -0.164,0 -0.397,-0.116 -0.623,-0.229 -2.472,-1.652 -5.87,-3.762 -9.041,-5.615 l -0.752,-0.439 v 10.116 z m -25.604,3.359 -1.028,0.822 1.315,0.069 c 8.19,0.423 12.965,2.863 14.638,3.893 l 0.262,0.161 0.263,-0.161 c 1.673,-1.03 6.448,-3.47 14.638,-3.893 l 1.315,-0.069 -1.028,-0.822 C -13.1,68.83 -14.967,68 -18.917,68 h -17 c -3.949,0 -5.816,0.83 -6.687,1.526 M 13.667,0 H 1.833 v 16.584 h 0.5 c 6.894,0 9.786,3.244 10.709,4.64 0.064,0.096 0.111,0.153 0.129,0.172 0.11,0.181 0.11,0.528 -0.062,0.786 -0.215,0.322 -0.504,0.485 -0.859,0.485 -3.909,0 -8.737,1.109 -14.348,3.298 l -0.319,0.124 v 16.34 l 0.437,0.056 c 4.66,0.602 6.651,1.731 7.423,2.351 l 0.12,0.097 0.154,0.011 c 3.439,0.273 6.033,3.091 6.033,6.556 0,0.574 -0.343,0.917 -0.917,0.917 -0.573,0 -0.916,-0.343 -0.916,-0.917 0,-2.663 -2.086,-4.75 -4.75,-4.75 -3.773,0 -10.528,2.722 -20.079,8.089 l -0.255,0.142 v 11.463 l 0.402,0.081 c 1.981,0.396 3.422,1.107 4.406,2.173 0.389,0.432 0.673,0.936 0.839,1.494 l 0.087,0.291 0.299,0.057 c 3.121,0.594 5.301,3.251 5.301,6.46 0,0.574 -0.343,0.917 -0.917,0.917 -0.574,0 -0.917,-0.343 -0.917,-0.917 0,-2.69 -2.029,-4.731 -4.72,-4.747 -9.35,0.024 -14.521,2.879 -15.883,3.753 l -0.23,0.148 v 5.096 c 0,0.574 -0.343,0.917 -0.917,0.917 -0.573,0 -0.916,-0.343 -0.916,-0.917 v -5.212 l -0.229,-0.148 c -1.69,-1.094 -6.62,-3.64 -15.855,-3.64 -2.663,0 -4.75,2.087 -4.75,4.75 0,0.574 -0.342,0.917 -0.916,0.917 -0.574,0 -0.917,-0.343 -0.917,-0.917 0,-3.222 2.287,-5.948 5.438,-6.48 l 0.305,-0.052 0.09,-0.296 c 0.167,-0.548 0.45,-1.046 0.839,-1.479 0.888,-1.049 2.318,-1.774 4.261,-2.166 l 0.4,-0.081 V 55.005 l -0.254,-0.143 C -46.508,51.161 -55.338,46.75 -60,46.75 c -2.664,0 -4.75,2.087 -4.75,4.75 0,0.574 -0.343,0.917 -0.917,0.917 -0.573,0 -0.916,-0.343 -0.916,-0.917 0,-3.465 2.594,-6.283 6.033,-6.556 l 0.154,-0.011 0.12,-0.097 c 0.772,-0.62 2.763,-1.749 7.423,-2.351 l 0.436,-0.056 v -16.34 l -0.318,-0.124 c -5.611,-2.189 -10.439,-3.298 -14.348,-3.298 -0.355,0 -0.644,-0.163 -0.859,-0.485 -0.171,-0.257 -0.172,-0.602 -0.002,-0.859 0.015,-0.02 0.04,-0.056 0.069,-0.099 0.923,-1.396 3.815,-4.64 10.708,-4.64 h 0.5 V 0 H -68.5 c -0.574,0 -0.917,-0.343 -0.917,-0.916 0,-0.574 0.343,-0.917 0.917,-0.917 h 82.167 c 0.574,0 0.916,0.343 0.916,0.917 0,0.573 -0.342,0.916 -0.916,0.916" /></g><g
           transform="translate(69.6665,2.083)"
           id="g24"><path
             id="path26"
             style="fill:none;stroke:#000000;stroke-width:0.5;stroke-linecap:butt;stroke-linejoin:miter;stroke-miterlimit:10;stroke-dasharray:none;stroke-opacity:1"
             d="m 0,0 h -20.833 v 6.167 c 0,3.691 -2.892,6.583 -6.584,6.583 C -31.108,12.75 -34,9.858 -34,6.167 V 0 H -54.833 V 16.584 H 0 Z m -22.667,0 h -9.5 v 6.167 c 0,2.663 2.087,4.75 4.75,4.75 2.664,0 4.75,-2.087 4.75,-4.75 z m -34.5,18.417 c -2.644,0 -4.966,0.546 -6.901,1.622 l -1.323,0.735 1.501,0.198 c 3.625,0.475 7.862,1.685 12.594,3.595 0.15,0.042 0.268,0.074 0.391,0.086 9.378,3.885 18.003,9.279 21.282,11.422 0.809,0.517 1.466,0.946 1.932,1.252 l 0.274,0.18 0.521,-0.341 C -8.578,25.148 2.763,21.727 9.051,20.972 L 10.704,20.773 9.215,20.028 C 7.833,19.337 5.616,18.417 2.333,18.417 Z M -4.25,42.084 V 26.837 l -0.699,0.303 c -10.941,4.741 -20.619,11.428 -21.842,12.298 -0.445,0.22 -0.959,0.19 -1.198,0.03 l -0.004,0.005 C -28.974,38.77 -38.779,31.952 -49.884,27.14 l -0.699,-0.303 v 15.247 z m -51.038,2.693 -1.926,0.413 1.89,0.556 c 9.313,2.74 23.419,11.524 27.626,14.384 l 0.279,0.189 0.28,-0.186 c 2.452,-1.634 6.279,-4.086 10.592,-6.496 0.033,-0.016 0.076,-0.026 0.118,-0.037 l 0.141,-0.055 C -9.345,49.603 -3.7,46.979 0.491,45.746 L 2.381,45.19 0.455,44.777 C -2.212,44.207 -5.393,43.917 -9,43.917 h -36.833 c -3.607,0 -6.788,0.29 -9.455,0.86 z M -17,66.167 V 56.026 l -0.752,0.439 c -1.189,0.693 -2.311,1.364 -3.338,1.986 -3.367,2.067 -5.734,3.67 -5.757,3.686 -0.172,0.081 -0.405,0.197 -0.57,0.197 -0.164,0 -0.397,-0.116 -0.623,-0.229 -2.472,-1.652 -5.87,-3.762 -9.041,-5.615 l -0.752,-0.439 v 10.116 z m -25.604,3.359 -1.028,0.822 1.315,0.069 c 8.19,0.423 12.965,2.863 14.638,3.893 l 0.262,0.161 0.263,-0.161 c 1.673,-1.03 6.448,-3.47 14.638,-3.893 l 1.315,-0.069 -1.028,-0.822 C -13.1,68.83 -14.967,68 -18.917,68 h -17 c -3.949,0 -5.816,0.83 -6.687,1.526 z M 13.667,0 H 1.833 v 16.584 h 0.5 c 6.894,0 9.786,3.244 10.709,4.64 0.064,0.096 0.111,0.153 0.129,0.172 0.11,0.181 0.11,0.528 -0.062,0.786 -0.215,0.322 -0.504,0.485 -0.859,0.485 -3.909,0 -8.737,1.109 -14.348,3.298 l -0.319,0.124 v 16.34 l 0.437,0.056 c 4.66,0.602 6.651,1.731 7.423,2.351 l 0.12,0.097 0.154,0.011 c 3.439,0.273 6.033,3.091 6.033,6.556 0,0.574 -0.343,0.917 -0.917,0.917 -0.573,0 -0.916,-0.343 -0.916,-0.917 0,-2.663 -2.086,-4.75 -4.75,-4.75 -3.773,0 -10.528,2.722 -20.079,8.089 l -0.255,0.142 v 11.463 l 0.402,0.081 c 1.981,0.396 3.422,1.107 4.406,2.173 0.389,0.432 0.673,0.936 0.839,1.494 l 0.087,0.291 0.299,0.057 c 3.121,0.594 5.301,3.251 5.301,6.46 0,0.574 -0.343,0.917 -0.917,0.917 -0.574,0 -0.917,-0.343 -0.917,-0.917 0,-2.69 -2.029,-4.731 -4.72,-4.747 -9.35,0.024 -14.521,2.879 -15.883,3.753 l -0.23,0.148 v 5.096 c 0,0.574 -0.343,0.917 -0.917,0.917 -0.573,0 -0.916,-0.343 -0.916,-0.917 v -5.212 l -0.229,-0.148 c -1.69,-1.094 -6.62,-3.64 -15.855,-3.64 -2.663,0 -4.75,2.087 -4.75,4.75 0,0.574 -0.342,0.917 -0.916,0.917 -0.574,0 -0.917,-0.343 -0.917,-0.917 0,-3.222 2.287,-5.948 5.438,-6.48 l 0.305,-0.052 0.09,-0.296 c 0.167,-0.548 0.45,-1.046 0.839,-1.479 0.888,-1.049 2.318,-1.774 4.261,-2.166 l 0.4,-0.081 V 55.005 l -0.254,-0.143 C -46.508,51.161 -55.338,46.75 -60,46.75 c -2.664,0 -4.75,2.087 -4.75,4.75 0,0.574 -0.343,0.917 -0.917,0.917 -0.573,0 -0.916,-0.343 -0.916,-0.917 0,-3.465 2.594,-6.283 6.033,-6.556 l 0.154,-0.011 0.12,-0.097 c 0.772,-0.62 2.763,-1.749 7.423,-2.351 l 0.436,-0.056 v -16.34 l -0.318,-0.124 c -5.611,-2.189 -10.439,-3.298 -14.348,-3.298 -0.355,0 -0.644,-0.163 -0.859,-0.485 -0.171,-0.257 -0.172,-0.602 -0.002,-0.859 0.015,-0.02 0.04,-0.056 0.069,-0.099 0.923,-1.396 3.815,-4.64 10.708,-4.64 h 0.5 V 0 H -68.5 c -0.574,0 -0.917,-0.343 -0.917,-0.916 0,-0.574 0.343,-0.917 0.917,-0.917 h 82.167 c 0.574,0 0.916,0.343 0.916,0.917 0,0.573 -0.342,0.916 -0.916,0.916 z" /></g><g
           transform="translate(29.5,14.833)"
           id="g28"><path
             id="path30"
             style="fill:#000000;fill-opacity:1;fill-rule:nonzero;stroke:none"
             d="m 0,0 h -2.833 c -0.574,0 -0.917,-0.343 -0.917,-0.916 0,-0.574 0.343,-0.917 0.917,-0.917 H 0 c 0.574,0 0.917,0.343 0.917,0.917 C 0.917,-0.343 0.574,0 0,0" /></g><g
           transform="translate(29.5,14.833)"
           id="g32"><path
             id="path34"
             style="fill:none;stroke:#000000;stroke-width:0.5;stroke-linecap:butt;stroke-linejoin:miter;stroke-miterlimit:10;stroke-dasharray:none;stroke-opacity:1"
             d="m 0,0 h -2.833 c -0.574,0 -0.917,-0.343 -0.917,-0.916 0,-0.574 0.343,-0.917 0.917,-0.917 H 0 c 0.574,0 0.917,0.343 0.917,0.917 C 0.917,-0.343 0.574,0 0,0 Z" /></g><g
           transform="translate(21,14.833)"
           id="g36"><path
             id="path38"
             style="fill:#000000;fill-opacity:1;fill-rule:nonzero;stroke:none"
             d="m 0,0 c -0.574,0 -0.917,-0.343 -0.917,-0.916 0,-0.574 0.343,-0.917 0.917,-0.917 0.574,0 0.917,0.343 0.917,0.917 C 0.917,-0.343 0.574,0 0,0" /></g><g
           transform="translate(21,14.833)"
           id="g40"><path
             id="path42"
             style="fill:none;stroke:#000000;stroke-width:0.5;stroke-linecap:butt;stroke-linejoin:miter;stroke-miterlimit:10;stroke-dasharray:none;stroke-opacity:1"
             d="m 0,0 c -0.574,0 -0.917,-0.343 -0.917,-0.916 0,-0.574 0.343,-0.917 0.917,-0.917 0.574,0 0.917,0.343 0.917,0.917 C 0.917,-0.343 0.574,0 0,0 Z" /></g><g
           transform="translate(46.5,29)"
           id="g44"><path
             id="path46"
             style="fill:#000000;fill-opacity:1;fill-rule:nonzero;stroke:none"
             d="m 0,0 h -2.833 c -0.574,0 -0.917,-0.343 -0.917,-0.917 0,-0.573 0.343,-0.916 0.917,-0.916 H 0 c 0.574,0 0.917,0.343 0.917,0.916 C 0.917,-0.343 0.574,0 0,0" /></g><g
           transform="translate(46.5,29)"
           id="g48"><path
             id="path50"
             style="fill:none;stroke:#000000;stroke-width:0.5;stroke-linecap:butt;stroke-linejoin:miter;stroke-miterlimit:10;stroke-dasharray:none;stroke-opacity:1"
             d="m 0,0 h -2.833 c -0.574,0 -0.917,-0.343 -0.917,-0.917 0,-0.573 0.343,-0.916 0.917,-0.916 H 0 c 0.574,0 0.917,0.343 0.917,0.916 C 0.917,-0.343 0.574,0 0,0 Z" /></g><g
           transform="translate(38,29)"
           id="g52"><path
             id="path54"
             style="fill:#000000;fill-opacity:1;fill-rule:nonzero;stroke:none"
             d="m 0,0 c -0.574,0 -0.917,-0.343 -0.917,-0.917 0,-0.573 0.343,-0.916 0.917,-0.916 0.574,0 0.917,0.343 0.917,0.916 C 0.917,-0.343 0.574,0 0,0" /></g><g
           transform="translate(38,29)"
           id="g56"><path
             id="path58"
             style="fill:none;stroke:#000000;stroke-width:0.5;stroke-linecap:butt;stroke-linejoin:miter;stroke-miterlimit:10;stroke-dasharray:none;stroke-opacity:1"
             d="m 0,0 c -0.574,0 -0.917,-0.343 -0.917,-0.917 0,-0.573 0.343,-0.916 0.917,-0.916 0.574,0 0.917,0.343 0.917,0.916 C 0.917,-0.343 0.574,0 0,0 Z" /></g><g
           transform="translate(40.8335,53.083)"
           id="g60"><path
             id="path62"
             style="fill:#000000;fill-opacity:1;fill-rule:nonzero;stroke:none"
             d="m 0,0 h -2.833 c -0.574,0 -0.917,-0.343 -0.917,-0.916 0,-0.574 0.343,-0.917 0.917,-0.917 H 0 c 0.574,0 0.917,0.343 0.917,0.917 C 0.917,-0.343 0.574,0 0,0" /></g><g
           transform="translate(40.8335,53.083)"
           id="g64"><path
             id="path66"
             style="fill:none;stroke:#000000;stroke-width:0.5;stroke-linecap:butt;stroke-linejoin:miter;stroke-miterlimit:10;stroke-dasharray:none;stroke-opacity:1"
             d="m 0,0 h -2.833 c -0.574,0 -0.917,-0.343 -0.917,-0.916 0,-0.574 0.343,-0.917 0.917,-0.917 H 0 c 0.574,0 0.917,0.343 0.917,0.917 C 0.917,-0.343 0.574,0 0,0 Z" /></g><g
           transform="translate(46.5,53.083)"
           id="g68"><path
             id="path70"
             style="fill:#000000;fill-opacity:1;fill-rule:nonzero;stroke:none"
             d="m 0,0 c -0.574,0 -0.917,-0.343 -0.917,-0.916 0,-0.574 0.343,-0.917 0.917,-0.917 0.574,0 0.917,0.343 0.917,0.917 C 0.917,-0.476 0.566,0 0,0" /></g><g
           transform="translate(46.5,53.083)"
           id="g72"><path
             id="path74"
             style="fill:none;stroke:#000000;stroke-width:0.5;stroke-linecap:butt;stroke-linejoin:miter;stroke-miterlimit:10;stroke-dasharray:none;stroke-opacity:1"
             d="m 0,0 c -0.574,0 -0.917,-0.343 -0.917,-0.916 0,-0.574 0.343,-0.917 0.917,-0.917 0.574,0 0.917,0.343 0.917,0.917 C 0.917,-0.476 0.566,0 0,0 Z" /></g><g
           transform="translate(60.6665,5.917)"
           id="g76"><path
             id="path78"
             style="fill:#000000;fill-opacity:1;fill-rule:nonzero;stroke:none"
             d="M 0,0 H 2.833 C 3.407,0 3.75,0.343 3.75,0.916 3.75,1.49 3.407,1.833 2.833,1.833 H 0 C -0.574,1.833 -0.917,1.49 -0.917,0.916 -0.917,0.343 -0.574,0 0,0" /></g><g
           transform="translate(60.6665,5.917)"
           id="g80"><path
             id="path82"
             style="fill:none;stroke:#000000;stroke-width:0.5;stroke-linecap:butt;stroke-linejoin:miter;stroke-miterlimit:10;stroke-dasharray:none;stroke-opacity:1"
             d="M 0,0 H 2.833 C 3.407,0 3.75,0.343 3.75,0.916 3.75,1.49 3.407,1.833 2.833,1.833 H 0 C -0.574,1.833 -0.917,1.49 -0.917,0.916 -0.917,0.343 -0.574,0 0,0 Z" /></g><g
           transform="translate(55,5.917)"
           id="g84"><path
             id="path86"
             style="fill:#000000;fill-opacity:1;fill-rule:nonzero;stroke:none"
             d="M 0,0 C 0.574,0 0.917,0.343 0.917,0.916 0.917,1.49 0.574,1.833 0,1.833 -0.574,1.833 -0.917,1.49 -0.917,0.916 -0.917,0.343 -0.574,0 0,0" /></g><g
           transform="translate(55,5.917)"
           id="g88"><path
             id="path90"
             style="fill:none;stroke:#000000;stroke-width:0.5;stroke-linecap:butt;stroke-linejoin:miter;stroke-miterlimit:10;stroke-dasharray:none;stroke-opacity:1"
             d="M 0,0 C 0.574,0 0.917,0.343 0.917,0.916 0.917,1.49 0.574,1.833 0,1.833 -0.574,1.833 -0.917,1.49 -0.917,0.916 -0.917,0.343 -0.574,0 0,0 Z" /></g></g></g></g></svg>