<?xml version="1.0" encoding="UTF-8" standalone="no"?>
<svg
   xmlns:dc="http://purl.org/dc/elements/1.1/"
   xmlns:cc="http://creativecommons.org/ns#"
   xmlns:rdf="http://www.w3.org/1999/02/22-rdf-syntax-ns#"
   xmlns:svg="http://www.w3.org/2000/svg"
   xmlns="http://www.w3.org/2000/svg"
   viewBox="0 0 114.16653 114.16933"
   height="114.16933"
   width="114.16653"
   xml:space="preserve"
   id="svg2"
   version="1.1"><metadata
     id="metadata8"><rdf:RDF><cc:Work
         rdf:about=""><dc:format>image/svg+xml</dc:format><dc:type
           rdf:resource="http://purl.org/dc/dcmitype/StillImage" /></cc:Work></rdf:RDF></metadata><defs
     id="defs6"><clipPath
       id="clipPath18"
       clipPathUnits="userSpaceOnUse"><path
         id="path16"
         d="M 0,85.627 H 85.625 V 0 H 0 Z" /></clipPath></defs><g
     transform="matrix(1.3333333,0,0,-1.3333333,-1.3333333e-4,114.16933)"
     id="g10"><g
       id="g12"><g
         clip-path="url(#clipPath18)"
         id="g14"><g
           transform="translate(80.7661,59.5879)"
           id="g20"><path
             id="path22"
             style="fill:#000000;fill-opacity:1;fill-rule:nonzero;stroke:none"
             d="M 0,0 H -0.132 L -19.61,0.063 -1.014,18.662 -0.838,18.454 C 1.459,15.726 2.724,12.255 2.724,8.682 2.724,5.601 1.808,2.637 0.075,0.108 Z m -11.246,-11.596 -3.16,-0.178 -0.118,-3.098 -0.143,-0.143 -0.138,-0.034 -19.85,0.067 12.919,12.919 h 0.104 l 19.851,-0.066 z m -23.669,-23.67 h -0.104 l -19.851,0.067 18.087,18.089 h 0.104 l 19.849,-0.067 z m -10.64,-10.642 h -20.022 l 8.58,8.58 h 0.104 l 19.851,-0.066 z m -21.533,21.531 8.518,8.515 0.067,-19.955 -0.074,-0.074 -8.511,-8.51 z m 14.425,14.422 3.37,-0.353 -0.207,3.519 6.898,6.898 0.064,-19.957 -0.074,-0.073 -13.764,-13.767 -0.066,19.955 z M -40.4,2.312 -26.912,15.801 -26.845,-4.154 -26.919,-4.228 -40.41,-17.72 -40.474,2.238 Z m 17.133,17.135 c 2.874,2.875 6.697,4.458 10.765,4.458 3.624,0 7.003,-1.23 9.772,-3.558 l 0.209,-0.176 -22.197,-22.198 -0.068,19.955 z m 23.912,0.546 -0.151,0.175 0.032,0.032 -1.509,1.51 -0.033,-0.032 -0.175,0.152 c -3.147,2.714 -7.164,4.21 -11.311,4.21 -4.638,0 -8.997,-1.806 -12.274,-5.084 l -26.911,-26.915 0.114,-1.965 -1.881,0.197 -15.768,-15.765 v -23.041 l -11.544,-11.546 1.509,-1.509 11.545,11.547 h 23.041 l 32.249,32.253 0.076,1.992 2.033,0.117 10.084,10.085 c 3.281,3.281 5.088,7.641 5.088,12.277 0,4.146 -1.497,8.163 -4.214,11.31" /></g></g></g></g></svg>