<?xml version="1.0" encoding="UTF-8" standalone="no"?>
<svg
   xmlns:dc="http://purl.org/dc/elements/1.1/"
   xmlns:cc="http://creativecommons.org/ns#"
   xmlns:rdf="http://www.w3.org/1999/02/22-rdf-syntax-ns#"
   xmlns:svg="http://www.w3.org/2000/svg"
   xmlns="http://www.w3.org/2000/svg"
   viewBox="0 0 81.999733 109.55173"
   height="109.55173"
   width="81.999733"
   xml:space="preserve"
   id="svg2"
   version="1.1"><metadata
     id="metadata8"><rdf:RDF><cc:Work
         rdf:about=""><dc:format>image/svg+xml</dc:format><dc:type
           rdf:resource="http://purl.org/dc/dcmitype/StillImage" /></cc:Work></rdf:RDF></metadata><defs
     id="defs6"><clipPath
       id="clipPath18"
       clipPathUnits="userSpaceOnUse"><path
         id="path16"
         d="M 0,82.164 H 61.5 V 0 H 0 Z" /></clipPath></defs><g
     transform="matrix(1.3333333,0,0,-1.3333333,-2.6666666e-4,109.55173)"
     id="g10"><g
       id="g12"><g
         clip-path="url(#clipPath18)"
         id="g14"><g
           transform="translate(2.7002,51.3828)"
           id="g20"><path
             id="path22"
             style="fill:#000000;fill-opacity:1;fill-rule:nonzero;stroke:none"
             d="m 0,0 c -0.102,15.561 12.479,28.311 28.044,28.417 h 0.011 C 43.621,28.311 56.201,15.561 56.1,-0.005 c 0,-7.571 -4.663,-16.287 -13.858,-25.9 -6.794,-7.103 -13.685,-12.087 -13.754,-12.136 l -0.438,-0.315 -0.438,0.315 c -0.069,0.049 -6.96,5.033 -13.754,12.136 C 4.663,-16.292 0,-7.576 0,0 m 28.05,-40.883 c 3.371,0 30.75,21.417 30.75,40.914 0,16.956 -13.795,30.75 -30.75,30.75 -16.956,0 -30.75,-13.794 -30.75,-30.75 0,-19.497 27.379,-40.914 30.75,-40.914" /></g><g
           transform="translate(30.75,56.7002)"
           id="g24"><path
             id="path26"
             style="fill:#000000;fill-opacity:1;fill-rule:nonzero;stroke:none"
             d="m 0,0 c 3.887,0 7.05,-3.162 7.05,-7.05 0,-3.888 -3.163,-7.051 -7.05,-7.051 -3.887,0 -7.05,3.163 -7.05,7.051 C -7.05,-3.162 -3.887,0 0,0 m 0,-16.8 c 5.376,0 9.75,4.374 9.75,9.75 0,5.376 -4.374,9.75 -9.75,9.75 -5.376,0 -9.75,-4.374 -9.75,-9.75 0,-5.376 4.374,-9.75 9.75,-9.75" /></g><g
           transform="translate(50.749,17.9199)"
           id="g28"><path
             id="path30"
             style="fill:#000000;fill-opacity:1;fill-rule:nonzero;stroke:none"
             d="m 0,0 c 0.93,-1.306 1.751,-2.727 1.751,-3.97 0,-6.203 -9.757,-11.25 -21.75,-11.25 -11.993,0 -21.75,5.047 -21.75,11.25 0.039,1.46 0.519,2.852 1.367,4.006 l -1.994,1.596 c -1.286,-1.592 -2.018,-3.564 -2.074,-5.622 0.001,-7.672 10.969,-13.93 24.451,-13.93 13.482,0 24.45,6.258 24.45,13.95 C 4.399,-2.011 3.71,-0.104 2.5,1.448 Z" /></g></g></g></g></svg>