<?xml version="1.0" encoding="UTF-8" standalone="no"?>
<svg
   xmlns:dc="http://purl.org/dc/elements/1.1/"
   xmlns:cc="http://creativecommons.org/ns#"
   xmlns:rdf="http://www.w3.org/1999/02/22-rdf-syntax-ns#"
   xmlns:svg="http://www.w3.org/2000/svg"
   xmlns="http://www.w3.org/2000/svg"
   viewBox="0 0 112.89987 116.372"
   height="116.37199"
   width="112.89986"
   xml:space="preserve"
   id="svg2"
   version="1.1"><metadata
     id="metadata8"><rdf:RDF><cc:Work
         rdf:about=""><dc:format>image/svg+xml</dc:format><dc:type
           rdf:resource="http://purl.org/dc/dcmitype/StillImage" /></cc:Work></rdf:RDF></metadata><defs
     id="defs6"><clipPath
       id="clipPath18"
       clipPathUnits="userSpaceOnUse"><path
         id="path16"
         d="M 0,87.279 H 84.675 V 0 H 0 Z" /></clipPath></defs><g
     transform="matrix(1.3333333,0,0,-1.3333333,-1.3333333e-4,116.372)"
     id="g10"><g
       id="g12"><g
         clip-path="url(#clipPath18)"
         id="g14"><g
           transform="translate(82.1211,59.875)"
           id="g20"><path
             id="path22"
             style="fill:#000000;fill-opacity:1;fill-rule:nonzero;stroke:none"
             d="m 0,0 h -79.567 v 11.169 c 0,3.767 3.064,6.831 6.831,6.831 h 6.536 v -7.602 c 0,-0.704 0.573,-1.277 1.277,-1.277 0.704,0 1.277,0.573 1.277,1.277 V 18 h 47.725 v -7.602 c 0,-0.704 0.572,-1.277 1.276,-1.277 0.705,0 1.277,0.573 1.277,1.277 V 18 h 6.537 C -3.064,18 0,14.936 0,11.169 Z m 0,-50.49 c 0,-3.767 -3.064,-6.831 -6.831,-6.831 h -65.905 c -3.767,0 -6.831,3.064 -6.831,6.831 V -2.554 H 0 Z m -6.831,71.043 h -6.537 v 5.574 c 0,0.705 -0.572,1.277 -1.277,1.277 -0.704,0 -1.276,-0.572 -1.276,-1.277 v -5.574 h -47.725 v 5.574 c 0,0.705 -0.573,1.277 -1.277,1.277 -0.704,0 -1.277,-0.572 -1.277,-1.277 v -5.574 h -6.536 c -5.175,0 -9.385,-4.21 -9.385,-9.384 V -50.49 c 0,-5.175 4.21,-9.385 9.385,-9.385 h 65.905 c 5.175,0 9.385,4.21 9.385,9.385 v 61.659 c 0,5.174 -4.21,9.384 -9.385,9.384" /></g><g
           transform="translate(37.9653,34.459)"
           id="g24"><path
             id="path26"
             style="fill:#000000;fill-opacity:1;fill-rule:nonzero;stroke:none"
             d="M 0,0 C 0.417,0.061 0.775,0.321 0.961,0.697 L 4.372,7.609 7.783,0.698 C 7.97,0.321 8.329,0.061 8.744,0 l 7.628,-1.108 -5.519,-5.382 c -0.301,-0.292 -0.438,-0.714 -0.367,-1.129 l 1.303,-7.597 -6.823,3.587 c -0.364,0.191 -0.825,0.191 -1.187,0 l -6.823,-3.587 1.303,7.597 c 0.071,0.415 -0.066,0.837 -0.367,1.129 l -5.519,5.381 z m -4.372,-7.85 -1.627,-9.485 c -0.083,-0.482 0.112,-0.961 0.508,-1.249 0.39,-0.282 0.918,-0.322 1.345,-0.097 l 8.518,4.479 8.519,-4.478 c 0.423,-0.223 0.957,-0.182 1.344,0.097 0.396,0.288 0.591,0.767 0.508,1.249 l -1.626,9.484 6.891,6.718 c 0.35,0.342 0.474,0.844 0.323,1.31 -0.149,0.458 -0.554,0.8 -1.032,0.869 L 9.776,2.431 5.518,11.061 C 5.3,11.5 4.861,11.772 4.372,11.772 3.89,11.772 3.441,11.493 3.227,11.061 l -4.259,-8.63 -9.524,-1.384 c -0.484,-0.07 -0.879,-0.403 -1.03,-0.869 -0.152,-0.466 -0.028,-0.968 0.323,-1.31 z" /></g></g></g></g></svg>