<?xml version="1.0" encoding="UTF-8" standalone="no"?>
<svg
   xmlns:dc="http://purl.org/dc/elements/1.1/"
   xmlns:cc="http://creativecommons.org/ns#"
   xmlns:rdf="http://www.w3.org/1999/02/22-rdf-syntax-ns#"
   xmlns:svg="http://www.w3.org/2000/svg"
   xmlns="http://www.w3.org/2000/svg"
   viewBox="0 0 118 115.33333"
   height="115.33333"
   width="118"
   xml:space="preserve"
   id="svg2"
   version="1.1"><metadata
     id="metadata8"><rdf:RDF><cc:Work
         rdf:about=""><dc:format>image/svg+xml</dc:format><dc:type
           rdf:resource="http://purl.org/dc/dcmitype/StillImage" /></cc:Work></rdf:RDF></metadata><defs
     id="defs6"><clipPath
       id="clipPath18"
       clipPathUnits="userSpaceOnUse"><path
         id="path16"
         d="M 0,86.5 H 88.5 V 0 H 0 Z" /></clipPath></defs><g
     transform="matrix(1.3333333,0,0,-1.3333333,0,115.33333)"
     id="g10"><g
       id="g12"><g
         clip-path="url(#clipPath18)"
         id="g14"><g
           transform="translate(68.25,12.25)"
           id="g20"><path
             id="path22"
             style="fill:#000000;fill-opacity:1;fill-rule:nonzero;stroke:none"
             d="m 0,0 h 10 v -7 c 0,-1.68 -1.32,-3 -3,-3 H 3 c -1.68,0 -3,1.32 -3,3 z m -58,0 h 10 v -7 c 0,-1.68 -1.32,-3 -3,-3 h -4 c -1.68,0 -3,1.32 -3,3 z m 25,15 h 18 V 9 h -18 z m -1,2 c -0.523,0 -1,-0.477 -1,-1 V 8 c 0,-0.523 0.477,-1 1,-1 h 20 c 0.523,0 1,0.477 1,1 v 8 c 0,0.523 -0.477,1 -1,1 z m 32,3 c 2.221,0 4,-1.779 4,-4 0,-2.221 -1.779,-4 -4,-4 -2.221,0 -4,1.779 -4,4 0,2.221 1.779,4 4,4 m -44,0 c 2.221,0 4,-1.779 4,-4 0,-2.221 -1.779,-4 -4,-4 -2.221,0 -4,1.779 -4,4 0,2.221 1.779,4 4,4 m 44,2 c -3.302,0 -6,-2.698 -6,-6 0,-3.302 2.698,-6 6,-6 3.302,0 6,2.698 6,6 0,3.302 -2.698,6 -6,6 m -44,0 c -3.302,0 -6,-2.698 -6,-6 0,-3.302 2.698,-6 6,-6 3.302,0 6,2.698 6,6 0,3.302 -2.698,6 -6,6 m -12,8 H 10 V 2 h -68 z m 70,25 h 5 c 0.571,0 1,-0.429 1,-1 V 40 c 0,-0.571 -0.429,-1 -1,-1 h -5 z m -77,0 h 5 V 39 h -5 c -0.571,0 -1,0.429 -1,1 v 14 c 0,0.571 0.429,1 1,1 m 42,7 H 10 V 32 h -33 z m -35,0 h 33 V 32 h -33 z m 3,10 H 7 c 1.68,0 3,-1.321 3,-3 v -5 h -68 v 5 c 0,1.679 1.32,3 3,3 m 0,2 c -2.753,0 -5,-2.247 -5,-5 V 57 h -5 c -1.645,0 -3,-1.355 -3,-3 V 40 c 0,-1.645 1.355,-3 3,-3 h 5 V -7 c 0,-2.753 2.247,-5 5,-5 h 4 c 2.753,0 5,2.247 5,5 v 7 h 44 v -7 c 0,-2.753 2.247,-5 5,-5 h 4 c 2.753,0 5,2.247 5,5 v 44 h 5 c 1.645,0 3,1.355 3,3 v 14 c 0,1.645 -1.355,3 -3,3 h -5 v 12 c 0,2.753 -2.247,5 -5,5 z" /></g><g
           transform="translate(68.25,12.25)"
           id="g24"><path
             id="path26"
             style="fill:none;stroke:#000000;stroke-width:0.5;stroke-linecap:butt;stroke-linejoin:miter;stroke-miterlimit:10;stroke-dasharray:none;stroke-opacity:1"
             d="m 0,0 h 10 v -7 c 0,-1.68 -1.32,-3 -3,-3 H 3 c -1.68,0 -3,1.32 -3,3 z m -58,0 h 10 v -7 c 0,-1.68 -1.32,-3 -3,-3 h -4 c -1.68,0 -3,1.32 -3,3 z m 25,15 h 18 V 9 h -18 z m -1,2 c -0.523,0 -1,-0.477 -1,-1 V 8 c 0,-0.523 0.477,-1 1,-1 h 20 c 0.523,0 1,0.477 1,1 v 8 c 0,0.523 -0.477,1 -1,1 z m 32,3 c 2.221,0 4,-1.779 4,-4 0,-2.221 -1.779,-4 -4,-4 -2.221,0 -4,1.779 -4,4 0,2.221 1.779,4 4,4 z m -44,0 c 2.221,0 4,-1.779 4,-4 0,-2.221 -1.779,-4 -4,-4 -2.221,0 -4,1.779 -4,4 0,2.221 1.779,4 4,4 z m 44,2 c -3.302,0 -6,-2.698 -6,-6 0,-3.302 2.698,-6 6,-6 3.302,0 6,2.698 6,6 0,3.302 -2.698,6 -6,6 z m -44,0 c -3.302,0 -6,-2.698 -6,-6 0,-3.302 2.698,-6 6,-6 3.302,0 6,2.698 6,6 0,3.302 -2.698,6 -6,6 z m -12,8 H 10 V 2 h -68 z m 70,25 h 5 c 0.571,0 1,-0.429 1,-1 V 40 c 0,-0.571 -0.429,-1 -1,-1 h -5 z m -77,0 h 5 V 39 h -5 c -0.571,0 -1,0.429 -1,1 v 14 c 0,0.571 0.429,1 1,1 z m 42,7 H 10 V 32 h -33 z m -35,0 h 33 V 32 h -33 z m 3,10 H 7 c 1.68,0 3,-1.321 3,-3 v -5 h -68 v 5 c 0,1.679 1.32,3 3,3 z m 0,2 c -2.753,0 -5,-2.247 -5,-5 V 57 h -5 c -1.645,0 -3,-1.355 -3,-3 V 40 c 0,-1.645 1.355,-3 3,-3 h 5 V -7 c 0,-2.753 2.247,-5 5,-5 h 4 c 2.753,0 5,2.247 5,5 v 7 h 44 v -7 c 0,-2.753 2.247,-5 5,-5 h 4 c 2.753,0 5,2.247 5,5 v 44 h 5 c 1.645,0 3,1.355 3,3 v 14 c 0,1.645 -1.355,3 -3,3 h -5 v 12 c 0,2.753 -2.247,5 -5,5 z" /></g></g></g></g></svg>