<?xml version="1.0" encoding="UTF-8" standalone="no"?>
<svg
   xmlns:dc="http://purl.org/dc/elements/1.1/"
   xmlns:cc="http://creativecommons.org/ns#"
   xmlns:rdf="http://www.w3.org/1999/02/22-rdf-syntax-ns#"
   xmlns:svg="http://www.w3.org/2000/svg"
   xmlns="http://www.w3.org/2000/svg"
   viewBox="0 0 86 112"
   height="112"
   width="86"
   xml:space="preserve"
   id="svg2"
   version="1.1"><metadata
     id="metadata8"><rdf:RDF><cc:Work
         rdf:about=""><dc:format>image/svg+xml</dc:format><dc:type
           rdf:resource="http://purl.org/dc/dcmitype/StillImage" /></cc:Work></rdf:RDF></metadata><defs
     id="defs6"><clipPath
       id="clipPath18"
       clipPathUnits="userSpaceOnUse"><path
         id="path16"
         d="M 0,84 H 64.5 V 0 H 0 Z" /></clipPath></defs><g
     transform="matrix(1.3333333,0,0,-1.3333333,0,112)"
     id="g10"><g
       id="g12"><g
         clip-path="url(#clipPath18)"
         id="g14"><g
           transform="translate(62,4.625)"
           id="g20"><path
             id="path22"
             style="fill:#000000;fill-opacity:1;fill-rule:nonzero;stroke:none"
             d="m 0,0 c 0,-1.172 -0.953,-2.125 -2.125,-2.125 h -55.25 c -1.172,0 -2.125,0.953 -2.125,2.125 v 74.75 c 0,1.172 0.953,2.125 2.125,2.125 h 55.25 C -0.953,76.875 0,75.922 0,74.75 Z m -2.125,79.125 h -55.25 c -2.412,0 -4.375,-1.962 -4.375,-4.375 V 0 c 0,-2.412 1.963,-4.375 4.375,-4.375 h 55.25 c 2.412,0 4.375,1.963 4.375,4.375 v 74.75 c 0,2.413 -1.963,4.375 -4.375,4.375" /></g><g
           transform="translate(62,4.625)"
           id="g24"><path
             id="path26"
             style="fill:none;stroke:#000000;stroke-width:0.5;stroke-linecap:butt;stroke-linejoin:miter;stroke-miterlimit:10;stroke-dasharray:none;stroke-opacity:1"
             d="m 0,0 c 0,-1.172 -0.953,-2.125 -2.125,-2.125 h -55.25 c -1.172,0 -2.125,0.953 -2.125,2.125 v 74.75 c 0,1.172 0.953,2.125 2.125,2.125 h 55.25 C -0.953,76.875 0,75.922 0,74.75 Z m -2.125,79.125 h -55.25 c -2.412,0 -4.375,-1.962 -4.375,-4.375 V 0 c 0,-2.412 1.963,-4.375 4.375,-4.375 h 55.25 c 2.412,0 4.375,1.963 4.375,4.375 v 74.75 c 0,2.413 -1.963,4.375 -4.375,4.375 z" /></g><g
           transform="translate(32.25,43.125)"
           id="g28"><path
             id="path30"
             style="fill:#000000;fill-opacity:1;fill-rule:nonzero;stroke:none"
             d="m 0,0 c -6.548,0 -11.875,5.327 -11.875,11.875 0,6.548 5.327,11.875 11.875,11.875 6.548,0 11.875,-5.327 11.875,-11.875 C 11.875,5.327 6.548,0 0,0 M 0,26 C -7.788,26 -14.125,19.663 -14.125,11.875 -14.125,4.087 -7.788,-2.25 0,-2.25 7.788,-2.25 14.125,4.087 14.125,11.875 14.125,19.663 7.788,26 0,26" /></g><g
           transform="translate(32.25,43.125)"
           id="g32"><path
             id="path34"
             style="fill:none;stroke:#000000;stroke-width:0.5;stroke-linecap:butt;stroke-linejoin:miter;stroke-miterlimit:10;stroke-dasharray:none;stroke-opacity:1"
             d="m 0,0 c -6.548,0 -11.875,5.327 -11.875,11.875 0,6.548 5.327,11.875 11.875,11.875 6.548,0 11.875,-5.327 11.875,-11.875 C 11.875,5.327 6.548,0 0,0 Z M 0,26 C -7.788,26 -14.125,19.663 -14.125,11.875 -14.125,4.087 -7.788,-2.25 0,-2.25 7.788,-2.25 14.125,4.087 14.125,11.875 14.125,19.663 7.788,26 0,26 Z" /></g><path
           id="path36"
           style="fill:#000000;fill-opacity:1;fill-rule:nonzero;stroke:#000000;stroke-width:0.5;stroke-linecap:butt;stroke-linejoin:miter;stroke-miterlimit:10;stroke-dasharray:none;stroke-opacity:1"
           d="m 19.75,23 h 25 v 2.25 h -25 z" /><path
           id="path38"
           style="fill:#000000;fill-opacity:1;fill-rule:nonzero;stroke:#000000;stroke-width:0.5;stroke-linecap:butt;stroke-linejoin:miter;stroke-miterlimit:10;stroke-dasharray:none;stroke-opacity:1"
           d="m 24.625,16.5 h 15.25 v 2.25 h -15.25 z" /></g></g></g></svg>