<?xml version="1.0" encoding="UTF-8" standalone="no"?>
<svg
   xmlns:dc="http://purl.org/dc/elements/1.1/"
   xmlns:cc="http://creativecommons.org/ns#"
   xmlns:rdf="http://www.w3.org/1999/02/22-rdf-syntax-ns#"
   xmlns:svg="http://www.w3.org/2000/svg"
   xmlns="http://www.w3.org/2000/svg"
   viewBox="0 0 116.5624 125.8172"
   height="125.8172"
   width="116.5624"
   xml:space="preserve"
   id="svg2"
   version="1.1"><metadata
     id="metadata8"><rdf:RDF><cc:Work
         rdf:about=""><dc:format>image/svg+xml</dc:format><dc:type
           rdf:resource="http://purl.org/dc/dcmitype/StillImage" /></cc:Work></rdf:RDF></metadata><defs
     id="defs6"><clipPath
       id="clipPath18"
       clipPathUnits="userSpaceOnUse"><path
         id="path16"
         d="M 0,94.363 H 87.422 V 0 H 0 Z" /></clipPath></defs><g
     transform="matrix(1.3333333,0,0,-1.3333333,0,125.8172)"
     id="g10"><g
       id="g12"><g
         clip-path="url(#clipPath18)"
         id="g14"><g
           transform="translate(65.2968,49.3039)"
           id="g20"><path
             id="path22"
             style="fill:#000000;fill-opacity:1;fill-rule:nonzero;stroke:none"
             d="M 0,0 C -0.219,0.363 -0.649,0.603 -1.128,0.621 -1.558,0.615 -1.976,0.367 -2.197,-0.024 L -8.548,-11.217 -20.883,8.636 V 22.082 H 2.094 c 0.35,0 0.671,0.131 0.91,0.369 0.241,0.239 0.374,0.557 0.376,0.898 0.002,0.316 -0.112,0.62 -0.322,0.854 l -8.292,9.377 8.283,9.368 c 0.318,0.367 0.39,0.898 0.184,1.348 -0.21,0.468 -0.667,0.763 -1.167,0.763 h -24.253 c -0.702,0 -1.273,-0.572 -1.273,-1.274 V 8.636 l -11.754,-18.909 -5.782,10.253 c -0.222,0.395 -0.641,0.644 -1.092,0.651 -0.451,-0.009 -0.841,-0.231 -1.058,-0.606 l -21.97,-36.623 c -0.175,-0.29 -0.225,-0.631 -0.142,-0.962 0.083,-0.329 0.289,-0.607 0.581,-0.782 0.198,-0.118 0.424,-0.18 0.656,-0.18 h 11.248 l -5.487,-8.839 c -0.178,-0.287 -0.234,-0.629 -0.156,-0.961 0.078,-0.331 0.28,-0.611 0.568,-0.79 0.203,-0.126 0.434,-0.192 0.671,-0.192 h 69.95 c 0.703,0 1.273,0.572 1.273,1.274 0,0.237 -0.066,0.469 -0.191,0.673 l -5.484,8.835 h 12.486 c 0.701,10e-4 1.27,0.572 1.268,1.274 0,0.23 -0.063,0.455 -0.181,0.653 z m -20.883,42.512 h 20.129 l -7.163,-8.096 c -0.427,-0.483 -0.428,-1.209 -0.001,-1.691 l 7.164,-8.097 h -20.129 z m -1.272,-36.649 14.682,-23.652 -6.454,-9.556 -6.692,7.916 c -0.22,0.26 -0.527,0.418 -0.865,0.447 -0.339,0.032 -0.665,-0.076 -0.928,-0.298 -0.057,-0.048 -0.106,-0.097 -0.15,-0.15 l -6.682,-7.919 -7.05,10.45 z m -39.621,-41.839 19.676,32.806 5.384,-9.614 -14.431,-23.192 z m 72.302,-10.791 -65.363,0.01 17.028,27.487 7.349,-10.903 c 0.213,-0.301 0.592,-0.499 0.986,-0.51 l 0.112,0.001 c 0.407,0.005 0.765,0.157 1.006,0.424 l 6.764,8.02 6.811,-8.056 c 0.235,-0.265 0.619,-0.405 1.016,-0.393 0.418,0.023 0.787,0.228 1.013,0.563 l 6.754,10.014 0.285,-0.462 z m -3.691,10.791 -0.103,0.166 -13.745,22.122 5.95,10.515 19.678,-32.803 z" /></g></g></g></g></svg>